<?xml version="1.0" standalone="no"?>
<!DOCTYPE svg PUBLIC "-//W3C//DTD SVG 20010904//EN"
 "http://www.w3.org/TR/2001/REC-SVG-20010904/DTD/svg10.dtd">
<svg version="1.0" xmlns="http://www.w3.org/2000/svg"
 width="520.000000pt" height="480.000000pt" viewBox="0 0 520.000000 480.000000"
 preserveAspectRatio="xMidYMid meet">

<g transform="translate(0.000000,480.000000) scale(0.100000,-0.100000)"
fill="#000000" stroke="none">
<path d="M1545 4519 c-99 -14 -218 -48 -247 -69 -15 -11 -37 -20 -49 -20 -34
0 -148 -68 -199 -119 -64 -64 -106 -142 -124 -233 -21 -103 -20 -163 5 -244
43 -138 124 -267 281 -446 139 -158 462 -468 758 -727 91 -80 207 -186 258
-235 l93 -90 -128 -32 c-496 -121 -875 -305 -1246 -603 -261 -210 -477 -483
-548 -691 -32 -94 -32 -268 0 -360 79 -224 255 -343 582 -391 269 -39 814 44
1266 193 l182 59 103 -20 c394 -79 945 -92 1518 -35 256 25 457 65 476 95 3 6
-3 20 -15 32 l-21 21 -20 -22 c-11 -11 -43 -28 -72 -37 -225 -67 -1092 -108
-1483 -70 -175 17 -425 55 -425 64 0 4 25 19 56 34 159 78 328 222 422 360
149 218 109 489 -125 851 -73 113 -138 199 -225 298 -33 37 -57 72 -53 77 9
16 251 174 337 220 68 37 101 47 270 81 356 71 590 133 826 221 146 55 240 99
246 116 26 67 -312 18 -644 -94 -184 -62 -360 -130 -526 -204 -62 -27 -119
-49 -128 -49 -18 0 -545 -98 -563 -105 -7 -2 -70 51 -141 118 -70 67 -209 194
-307 282 -726 647 -968 939 -983 1185 -10 170 45 299 167 390 181 136 445 192
801 171 332 -21 652 -88 905 -189 256 -103 488 -216 571 -278 58 -44 74 -49
82 -26 14 43 -263 188 -659 346 -193 77 -462 139 -741 170 -146 17 -433 19
-533 5z m2555 -1744 c0 -23 -336 -141 -550 -194 -202 -50 -340 -79 -340 -71 0
14 353 145 540 200 128 38 350 79 350 65z m-1313 -419 c-32 -19 -100 -64 -151
-100 -52 -36 -98 -66 -103 -66 -5 0 -35 27 -68 60 -44 44 -55 61 -44 65 29 11
354 73 388 74 l35 1 -57 -34z m-357 -126 l75 -69 -25 -18 c-57 -40 -173 -143
-284 -252 -251 -246 -396 -453 -456 -649 -33 -110 -27 -224 19 -317 73 -148
240 -271 481 -355 52 -18 99 -36 103 -40 8 -7 -146 -60 -303 -104 -116 -32
-465 -103 -575 -116 -284 -35 -441 -31 -619 15 -132 33 -215 73 -281 136 -71
67 -108 127 -135 217 -30 99 -25 244 12 344 51 138 215 366 365 508 169 160
425 346 626 455 113 61 337 154 491 204 137 45 377 109 411 110 11 0 52 -30
95 -69z m193 -211 c185 -219 335 -478 378 -654 17 -71 20 -108 16 -178 -4 -79
-9 -98 -47 -175 -73 -147 -243 -300 -462 -417 l-83 -44 -65 19 c-323 92 -527
238 -589 422 -28 84 -26 141 9 250 59 183 182 360 415 594 156 157 313 295
330 290 6 -1 50 -50 98 -107z"/>
</g>
</svg>
